<?xml version="1.0" encoding="utf-8"?>
<!-- Generator: Adobe Illustrator 21.1.0, SVG Export Plug-In . SVG Version: 6.00 Build 0)  -->
<svg version="1.1" id="Laag_1" xmlns="http://www.w3.org/2000/svg" xmlns:xlink="http://www.w3.org/1999/xlink" x="0px" y="0px"
	 viewBox="0 0 841.89 396.85" style="enable-background:new 0 0 841.89 396.85;" xml:space="preserve">
<style type="text/css">
	.st0{fill:#004275;stroke:#004275;stroke-width:1.8297;}
	.st1{fill:#007AC2;}
	.st2{fill:#FFFFFF;}
	.st3{fill:#8D8B00;}
	.st4{fill:#C1CD23;}
	.st5{fill:#88B3DF;}
</style>
<g>
	<path class="st0" d="M144.455,248.24c-12.06-8.687-26.358-12.897-42.62-12.897c-35.609,0-61.127,25.236-61.127,60.287
		c0,39.812,26.357,65.885,66.734,65.885c13.179,0,24.113-2.242,40.655-8.693l6.449,29.725c-11.773,5.325-16.544,7.003-24.952,8.977
		c-8.973,1.957-18.788,3.078-29.722,3.078c-28.878,0-49.628-7.288-67.014-22.989c-19.623-17.664-31.116-45.148-31.116-74.026
		c0-26.909,10.09-51.304,28.316-69.253c18.505-18.225,39.253-25.79,69.815-25.79c23.553,0,42.056,5.605,58.035,17.66L144.455,248.24
		z"/>
	<path class="st0" d="M315.963,390.955v-79.351h-95.05v79.351h-35.327v-185.05h35.327v74.023h95.05v-74.023h35.328v185.05H315.963z"
		/>
	<path class="st0" d="M393.748,390.955v-185.05h112.716v30.001h-77.385v45.7h63.367v29.998h-63.367v49.352h81.026v29.998H393.748z"
		/>
	<polygon class="st1" points="548.085,182.517 548.135,262.536 524.63,269.367 524.63,187.952 	"/>
	<path class="st2" d="M293.664,47.778l0.066,35.972c0,0,46.458,39.201,47.916,44.734c1.458,5.534,7.574-41.939,7.574-41.939
		l-36.698-39.031L293.664,47.778z"/>
	<polygon class="st2" points="256.46,133.879 256.444,186.216 266.545,197.468 266.499,143.919 	"/>
	<path class="st1" d="M578.692,8.925c0,0-72.216,14.174-168.349,56.212l0.549,52.697c48.152-23.277,105.955-43.682,167.766-63.086
		L578.692,8.925z"/>
	<path class="st3" d="M351.579,91.716l-0.697,1.758c0.231-0.122,0.464-0.24,0.697-0.362V91.716z"/>
	<path class="st3" d="M357.668,88.522l-2.384-0.87c0-3.624-2.442,0.878-2.442,0.878l-1.263,3.185v1.395
		c-0.233,0.123-0.466,0.24-0.697,0.362c-27.383,14.153-55.756,30.403-84.259,49.071l-0.031,54.916
		c43.435-25.054,69.508-40.201,85.122-48.701c3.583-1.952,6.021-4.122,5.954-8.756C357.633,137.603,357.668,97.441,357.668,88.522z"
		/>
	<path class="st2" d="M410.215,56.126l8.876-4.082l-5.17,15.831l27.356,27.947l87.884,80.95l-4.53,11.262v81.294
		c0,0-118.297-130.931-122.99-136.824c-2.168-2.725-2.453-6.22-2.453-10.781c0-18.496,0.073-55.865,0.073-55.865L410.215,56.126z"/>
	<path class="st4" d="M352.648,80.699c-7.909-6.854-27.955-24.372-45.021-37.244l-14.008,4.342c0,0,24.033,18.191,43.736,37.806
		c1.163,1.157,1.586,3.039-0.351,4.086c-41.11,22.235-74.377,39.971-80.614,44.109l10.233,10.814c0,0,43.038-24.07,84.04-46.869
		C359.763,92.685,359.653,86.77,352.648,80.699z"/>
	<path class="st5" d="M421.836,63.418c9.366-3.889,76.359-31.165,156.903-54.541l-11.065-6.628c0,0-68.174,17.798-157.285,53.328
		c-10.354,4.13-15.435,9.443-6.825,18.056c39.376,39.38,80.131,79.151,121.014,114.347l23.516-5.473
		c0,0-69.571-61.197-126.205-113.121C418.882,66.628,419.484,64.394,421.836,63.418z"/>
	<g>
		<path class="st1" d="M594.513,310.305c-8.855,0-12.105-5.721-12.105-12.774c0-8.225,4.151-14.219,13.045-14.219
			c1.96,0,3.995,0.318,5.835,0.747l-0.469,3.914c-1.918-0.585-3.8-0.903-5.718-0.903c-5.526,0-8.032,4.232-8.032,9.758
			c0,6.15,2.624,9.641,8.384,9.641c1.801,0,4.112-0.513,5.562-1.216l0.507,3.797C599.529,309.837,597.059,310.305,594.513,310.305z"
			/>
		<path class="st1" d="M625.03,309.993v-11.871h-12.495v11.871h-4.274v-26.446h4.274v10.929h12.495v-10.929h4.232v26.446H625.03z"/>
		<path class="st1" d="M650.066,309.993l-8.23-11.442h-0.192v11.442h-4.271v-26.446c1.918-0.117,4.112-0.156,7.093-0.156
			c5.484,0,9.242,1.918,9.242,7.171c0,4.232-3.173,6.936-7.483,7.405c0.745,0.937,1.57,1.957,2.233,2.821l6.975,9.206H650.066z
			 M643.874,286.881c-0.823,0-1.606,0.039-2.231,0.073v8.386c0.391,0.039,1.135,0.078,2.077,0.078c3.446,0,5.52-1.762,5.52-4.388
			C649.241,288.13,647.437,286.881,643.874,286.881z"/>
		<path class="st1" d="M661.229,309.993v-26.446h4.271v26.446H661.229z"/>
		<path class="st1" d="M678.269,310.383c-1.918,0-3.8-0.234-5.325-0.624l0.234-4.037c1.489,0.552,3.566,0.982,5.484,0.982
			c2.897,0,5.25-1.216,5.25-4.076c0-5.565-11.556-3.212-11.556-11.754c0-4.544,3.566-7.717,9.713-7.717
			c1.57,0,3.173,0.195,4.781,0.474l-0.234,3.797c-1.528-0.474-3.215-0.741-4.781-0.741c-3.29,0-4.974,1.528-4.974,3.719
			c0,5.292,11.553,3.329,11.553,11.598C688.414,306.859,684.581,310.383,678.269,310.383z"/>
		<path class="st1" d="M704.403,287.154v22.839h-4.274v-22.839h-7.246v-3.607h18.805v3.607H704.403z"/>
		<path class="st1" d="M717.37,309.993v-26.446h13.945v3.569h-9.677v7.522h9.209v3.485h-9.209v8.23h9.677v3.641H717.37z"/>
		<path class="st1" d="M738.834,309.993v-26.446h4.274v22.727h9.086v3.719H738.834z"/>
		<path class="st1" d="M757.522,309.993v-26.446h4.274v26.446H757.522z"/>
		<path class="st1" d="M769.942,310.305c-1.255,0-2.236-0.156-3.056-0.312v-3.719c0.666,0.234,1.606,0.429,2.545,0.429
			c1.999,0,3.094-0.825,3.094-4.037v-19.12h4.271v19.315C776.798,307.25,775.033,310.305,769.942,310.305z"/>
		<path class="st1" d="M798.736,309.993l-9.599-12.931v12.931h-4.268v-26.446h4.268v12.267l9.638-12.267h5.25l-10.502,12.774
			l10.895,13.672H798.736z"/>
		<path class="st1" d="M809.938,309.993v-26.446h13.951v3.569h-9.677v7.522h9.206v3.485h-9.206v8.23h9.677v3.641H809.938z"/>
		<path class="st1" d="M600.544,351.779v-11.865h-12.496v11.865h-4.271v-26.441h4.271v10.929h12.496v-10.929h4.235v26.441H600.544z"
			/>
		<path class="st1" d="M623.229,352.175c-8.029,0-11.913-5.214-11.913-13.321c0-8.776,5.724-13.912,12.696-13.912
			c7.129,0,11.91,4.427,11.91,13.282C635.922,347,630.244,352.175,623.229,352.175z M623.622,328.706
			c-4.076,0-7.759,3.29-7.759,9.635c0,6,2.467,10.031,7.678,10.031c3.917,0,7.837-3.134,7.837-9.719
			C631.378,332.274,628.557,328.706,623.622,328.706z"/>
		<path class="st1" d="M662.171,330.077c-2.194-0.859-4.625-1.372-7.056-1.372c-5.325,0-9.594,3.446-9.594,9.992
			c0,6.111,3.482,9.674,9.167,9.674c1.525,0,2.858-0.234,4.073-0.625v-9.602h4.271v12.423c-2.626,1.015-5.838,1.606-8.857,1.606
			c-8.185,0-13.24-4.896-13.24-13.048c0-8.191,5.484-14.14,14.534-14.14c2.548,0,5.055,0.39,7.366,1.132L662.171,330.077z"/>
		<path class="st1" d="M670.984,351.779v-26.441h13.948v3.563h-9.677v7.522h9.206v3.491h-9.206v8.225h9.677v3.641H670.984z"/>
		<path class="st1" d="M697.112,352.175c-1.918,0-3.8-0.24-5.325-0.63l0.234-4.031c1.489,0.546,3.566,0.976,5.484,0.976
			c2.897,0,5.25-1.21,5.25-4.076c0-5.559-11.556-3.212-11.556-11.749c0-4.55,3.566-7.722,9.713-7.722
			c1.57,0,3.173,0.201,4.781,0.474l-0.234,3.803c-1.528-0.474-3.215-0.747-4.781-0.747c-3.29,0-4.974,1.528-4.974,3.719
			c0,5.291,11.553,3.334,11.553,11.598C707.258,348.645,703.422,352.175,697.112,352.175z"/>
		<path class="st1" d="M724.853,352.097c-8.854,0-12.108-5.721-12.108-12.774c0-8.225,4.154-14.219,13.048-14.219
			c1.957,0,3.993,0.312,5.835,0.742l-0.468,3.92c-1.918-0.591-3.803-0.903-5.721-0.903c-5.523,0-8.029,4.232-8.029,9.758
			c0,6.15,2.623,9.635,8.383,9.635c1.801,0,4.11-0.508,5.562-1.216l0.507,3.803C729.868,351.623,727.398,352.097,724.853,352.097z"
			/>
		<path class="st1" d="M755.367,351.779v-11.865h-12.496v11.865H738.6v-26.441h4.271v10.929h12.496v-10.929h4.235v26.441H755.367z"
			/>
		<path class="st1" d="M778.052,352.175c-8.029,0-11.91-5.214-11.91-13.321c0-8.776,5.724-13.912,12.696-13.912
			c7.129,0,11.907,4.427,11.907,13.282C790.746,347,785.067,352.175,778.052,352.175z M778.445,328.706
			c-4.076,0-7.759,3.29-7.759,9.635c0,6,2.47,10.031,7.681,10.031c3.917,0,7.834-3.134,7.834-9.719
			C786.202,332.274,783.38,328.706,778.445,328.706z"/>
		<path class="st1" d="M807.591,352.175c-8.032,0-11.91-5.214-11.91-13.321c0-8.776,5.721-13.912,12.694-13.912
			c7.131,0,11.91,4.427,11.91,13.282C820.284,347,814.602,352.175,807.591,352.175z M807.981,328.706
			c-4.07,0-7.753,3.29-7.753,9.635c0,6,2.464,10.031,7.675,10.031c3.92,0,7.837-3.134,7.837-9.719
			C815.74,332.274,812.919,328.706,807.981,328.706z"/>
		<path class="st1" d="M826.789,351.779v-26.441h4.271v22.722h9.089v3.719H826.789z"/>
		<path class="st1" d="M583.777,393.57v-26.447h13.948v3.569h-9.677v7.522h9.206v3.485h-9.206v8.23h9.677v3.641H583.777z"/>
		<path class="st1" d="M612.258,393.726c-2.704,0-4.935-0.117-7.012-0.156v-26.408c2.077-0.039,5.133-0.156,8.188-0.156
			c8.344,0,13.477,3.803,13.477,12.97C626.912,389.065,620.876,393.726,612.258,393.726z M613.12,370.531
			c-1.294,0-2.665,0.045-3.605,0.117v19.237c0.864,0.117,2.155,0.201,3.175,0.201c5.679,0,9.674-3.022,9.674-9.797
			C622.365,374.021,619.585,370.531,613.12,370.531z"/>
		<path class="st1" d="M633.567,393.57v-26.447h13.951v3.569h-9.677v7.522h9.206v3.485h-9.206v8.23h9.677v3.641H633.567z"/>
	</g>
</g>
</svg>
