<svg width="17" height="17" viewBox="0 0 17 17" fill="none" xmlns="http://www.w3.org/2000/svg">
<path d="M16.3097 14.9753L13.2602 11.963C14.2441 10.7211 14.778 9.18756 14.776 7.60882C14.776 6.20283 14.3551 4.82841 13.5667 3.65937C12.7782 2.49033 11.6576 1.57918 10.3464 1.04113C9.0353 0.50308 7.59256 0.362302 6.20065 0.636597C4.80875 0.910893 3.5302 1.58794 2.5267 2.58213C1.52319 3.57631 0.839793 4.84299 0.562927 6.22196C0.28606 7.60094 0.428158 9.03028 0.971252 10.3293C1.51435 11.6282 2.43404 12.7385 3.61404 13.5196C4.79404 14.3007 6.18134 14.7176 7.60052 14.7176C9.19406 14.7196 10.742 14.1907 11.9955 13.2159L15.0361 16.2372C15.1195 16.3204 15.2187 16.3865 15.328 16.4317C15.4373 16.4768 15.5545 16.5 15.6729 16.5C15.7913 16.5 15.9086 16.4768 16.0179 16.4317C16.1272 16.3865 16.2264 16.3204 16.3097 16.2372C16.3938 16.1545 16.4605 16.0563 16.5061 15.948C16.5516 15.8397 16.575 15.7236 16.575 15.6062C16.575 15.4889 16.5516 15.3728 16.5061 15.2645C16.4605 15.1562 16.3938 15.0579 16.3097 14.9753ZM2.21892 7.60882C2.21892 6.55433 2.53454 5.52352 3.12588 4.64674C3.71722 3.76996 4.55771 3.08659 5.54107 2.68305C6.52443 2.27952 7.60649 2.17393 8.65041 2.37965C9.69434 2.58538 10.6533 3.09316 11.4059 3.8388C12.1585 4.58444 12.6711 5.53444 12.8787 6.56868C13.0864 7.60291 12.9798 8.67492 12.5725 9.64914C12.1651 10.6234 11.4754 11.4561 10.5904 12.0419C9.70537 12.6277 8.6649 12.9404 7.60052 12.9404C6.17323 12.9404 4.8044 12.3787 3.79515 11.3788C2.78591 10.379 2.21892 9.02286 2.21892 7.60882Z" fill="#6F6F6F"/>
</svg>
