<svg width="92" height="92" viewBox="0 0 92 92" fill="none" xmlns="http://www.w3.org/2000/svg">
<rect width="91.5618" height="91.5618" rx="20" fill="#B8BF00"/>
<path d="M71.2471 33.1872C70.6493 30.9398 68.8809 29.1668 66.6309 28.5592C62.5626 27.4688 46.2396 27.4688 46.2396 27.4688C46.2396 27.4688 29.925 27.4688 25.8484 28.5592C23.6067 29.1585 21.8383 30.9315 21.2322 33.1872C20.1445 37.2659 20.1445 45.7811 20.1445 45.7811C20.1445 45.7811 20.1445 54.2964 21.2322 58.375C21.83 60.6224 23.5984 62.3954 25.8484 63.0031C29.925 64.0935 46.2396 64.0935 46.2396 64.0935C46.2396 64.0935 62.5626 64.0935 66.6309 63.0031C68.8726 62.4037 70.641 60.6308 71.2471 58.375C72.3348 54.2964 72.3348 45.7811 72.3348 45.7811C72.3348 45.7811 72.3348 37.2659 71.2471 33.1872Z" fill="white"/>
<path d="M41.0256 53.6305L54.5838 45.7811L41.0256 37.9318V53.6305Z" fill="#B8BF00"/>
</svg>
