<svg width="123" height="49" viewBox="0 0 123 49" fill="none" xmlns="http://www.w3.org/2000/svg">
<rect x="1" y="1" width="121" height="47" rx="1" fill="white" stroke="#DFDFDF" stroke-width="2"/>
<path d="M31.248 16.776V32H29.246V20.648L24.186 32H22.778L17.696 20.626V32H15.694V16.776H17.85L23.482 29.36L29.114 16.776H31.248ZM45.6432 25.51C45.6432 25.8913 45.6212 26.2947 45.5772 26.72H35.9412C36.0146 27.908 36.4179 28.8393 37.1512 29.514C37.8992 30.174 38.8012 30.504 39.8572 30.504C40.7226 30.504 41.4412 30.306 42.0132 29.91C42.5999 29.4993 43.0106 28.9567 43.2452 28.282H45.4012C45.0786 29.4407 44.4332 30.3867 43.4652 31.12C42.4972 31.8387 41.2946 32.198 39.8572 32.198C38.7132 32.198 37.6866 31.9413 36.7772 31.428C35.8826 30.9147 35.1786 30.1887 34.6652 29.25C34.1519 28.2967 33.8952 27.1967 33.8952 25.95C33.8952 24.7033 34.1446 23.6107 34.6432 22.672C35.1419 21.7333 35.8386 21.0147 36.7332 20.516C37.6426 20.0027 38.6839 19.746 39.8572 19.746C41.0012 19.746 42.0132 19.9953 42.8932 20.494C43.7732 20.9927 44.4479 21.682 44.9172 22.562C45.4012 23.4273 45.6432 24.41 45.6432 25.51ZM43.5752 25.092C43.5752 24.3293 43.4066 23.6767 43.0692 23.134C42.7319 22.5767 42.2699 22.1587 41.6832 21.88C41.1112 21.5867 40.4732 21.44 39.7692 21.44C38.7572 21.44 37.8919 21.7627 37.1732 22.408C36.4692 23.0533 36.0659 23.948 35.9632 25.092H43.5752ZM54.1598 19.724C55.6265 19.724 56.8145 20.1713 57.7238 21.066C58.6331 21.946 59.0878 23.222 59.0878 24.894V32H57.1078V25.18C57.1078 23.9773 56.8071 23.0607 56.2058 22.43C55.6045 21.7847 54.7831 21.462 53.7418 21.462C52.6858 21.462 51.8425 21.792 51.2118 22.452C50.5958 23.112 50.2878 24.0727 50.2878 25.334V32H48.2858V19.944H50.2878V21.66C50.6838 21.044 51.2191 20.5673 51.8938 20.23C52.5831 19.8927 53.3385 19.724 54.1598 19.724ZM73.0501 19.944V32H71.0481V30.218C70.6667 30.834 70.1314 31.318 69.4421 31.67C68.7674 32.0073 68.0194 32.176 67.1981 32.176C66.2594 32.176 65.4161 31.9853 64.6681 31.604C63.9201 31.208 63.3261 30.6213 62.8861 29.844C62.4607 29.0667 62.2481 28.1207 62.2481 27.006V19.944H64.2281V26.742C64.2281 27.93 64.5287 28.8467 65.1301 29.492C65.7314 30.1227 66.5527 30.438 67.5941 30.438C68.6647 30.438 69.5081 30.108 70.1241 29.448C70.7401 28.788 71.0481 27.8273 71.0481 26.566V19.944H73.0501Z" fill="#0072BB"/>
<path d="M108.7 31.7002L87.9999 31.7002" stroke="#0072BB" stroke-width="3" stroke-linecap="round"/>
<path d="M108.7 24.5L87.9999 24.5" stroke="#0072BB" stroke-width="3" stroke-linecap="round"/>
<path d="M108.7 17.3L87.9999 17.3" stroke="#0072BB" stroke-width="3" stroke-linecap="round"/>
</svg>
