<svg width="579" height="395" viewBox="0 0 579 395" fill="none" xmlns="http://www.w3.org/2000/svg">
<path d="M200.56 227.288C193.22 222.007 184.546 219.457 174.719 219.457C153.125 219.457 137.657 234.756 137.657 256.065C137.657 280.228 153.671 296.074 178.116 296.074C186.123 296.074 192.735 294.738 202.804 290.792L206.686 308.823C199.529 312.041 196.678 313.073 191.522 314.287C186.062 315.501 180.118 316.169 173.506 316.169C155.976 316.169 143.419 311.737 132.865 302.206C120.976 291.46 114 274.764 114 257.28C114 240.948 120.127 226.135 131.166 215.207C142.388 204.157 155.005 199.543 173.506 199.543C187.821 199.543 199.043 202.943 208.688 210.289L200.56 227.288Z" fill="#004275" stroke="#004275" stroke-width="1.8297"/>
<path d="M304.589 313.923V265.718H246.903V313.923H225.49V201.608H246.903V246.534H304.589V201.608H326.002V313.984L304.589 313.923Z" fill="#004275" stroke="#004275" stroke-width="1.8297"/>
<path d="M351.782 313.923V201.608H420.144V219.821H373.194V247.566H411.652V265.779H373.194V295.77H422.328V313.984L351.782 313.923Z" fill="#004275" stroke="#004275" stroke-width="1.8297"/>
<path d="M445.378 187.401L445.438 235.97L431.184 240.098V190.68L445.378 187.401Z" fill="#007AC2"/>
<path d="M291.062 105.624L291.123 127.479C291.123 127.479 319.329 151.278 320.179 154.617C321.089 157.956 324.789 129.179 324.789 129.179L302.527 105.502L291.062 105.624Z" fill="white"/>
<path d="M268.498 157.896V189.648L274.624 196.447V163.967L268.498 157.896Z" fill="white"/>
<path d="M464 82.0069C464 82.0069 420.205 90.6279 361.912 116.127L362.215 148.121C391.452 133.976 426.513 121.59 464 109.813V82.0069Z" fill="#007AC2"/>
<path d="M326.184 132.276L325.759 133.368C325.88 133.308 326.062 133.247 326.184 133.126V132.276Z" fill="#8D8B00"/>
<path d="M329.884 130.333L328.428 129.786C328.428 127.601 326.972 130.333 326.972 130.333L326.184 132.276V133.126C326.062 133.186 325.88 133.247 325.759 133.368C309.139 141.989 291.911 151.825 274.624 163.178V196.508C300.95 181.269 316.781 172.102 326.244 166.942C328.428 165.727 329.884 164.452 329.884 161.599C329.884 160.142 329.884 135.736 329.884 130.333Z" fill="#8D8B00"/>
<path d="M361.79 110.663L367.189 108.173L364.035 117.766L380.655 134.704L433.974 183.88L431.244 190.74V240.098C431.244 240.098 359.485 160.628 356.634 157.046C355.3 155.407 355.118 153.282 355.118 150.489C355.118 139.257 355.179 116.551 355.179 116.551L361.79 110.663Z" fill="white"/>
<path d="M326.851 125.597C322.059 121.408 309.867 110.784 299.555 103.013L291.062 105.624C291.062 105.624 305.62 116.673 317.57 128.572C318.298 129.301 318.541 130.394 317.328 131.061C292.397 144.539 272.198 155.346 268.437 157.835L274.624 164.392C274.624 164.392 300.707 149.76 325.577 135.918C331.158 132.883 331.097 129.24 326.851 125.597Z" fill="#C1CD23"/>
<path d="M368.827 115.094C374.529 112.727 415.17 96.1526 464 82.0069L457.267 78C457.267 78 415.898 88.8066 361.851 110.359C355.543 112.848 352.51 116.066 357.726 121.348C381.626 145.268 406.314 169.431 431.123 190.74L445.378 187.401C445.378 187.401 403.159 150.246 368.827 118.737C367.007 117.037 367.371 115.702 368.827 115.094Z" fill="#88B3DF"/>
</svg>
