<svg width="92" height="92" viewBox="0 0 92 92" fill="none" xmlns="http://www.w3.org/2000/svg">
<rect width="91.5618" height="91.5618" rx="20" fill="#B8BF00"/>
<path d="M68.5055 31.2845C66.9937 31.9358 65.4043 32.3892 63.7766 32.6337C64.5376 32.5032 65.6573 31.1322 66.103 30.5773C66.7801 29.7403 67.2962 28.7847 67.6249 27.7592C67.6249 27.6831 67.701 27.5743 67.6249 27.5199C67.5866 27.4989 67.5436 27.4879 67.4999 27.4879C67.4562 27.4879 67.4133 27.4989 67.3749 27.5199C65.6075 28.4778 63.7265 29.2089 61.7764 29.696C61.7084 29.7168 61.6361 29.7186 61.5671 29.7014C61.4982 29.6841 61.4352 29.6484 61.385 29.5981C61.2332 29.4171 61.0698 29.2463 60.8958 29.0867C60.1004 28.3734 59.198 27.7896 58.2216 27.3566C56.9035 26.8154 55.4798 26.581 54.058 26.6712C52.6784 26.7584 51.3315 27.1287 50.101 27.7592C48.8893 28.424 47.8243 29.327 46.9701 30.4141C46.0716 31.533 45.423 32.8315 45.0677 34.2223C44.7748 35.5452 44.7416 36.9125 44.9699 38.2481C44.9699 38.4766 44.9699 38.5093 44.7742 38.4766C37.0232 37.3342 30.6637 34.5814 25.4674 28.6732C25.2391 28.4121 25.1195 28.4121 24.9347 28.6732C22.6736 32.1115 23.7715 37.5518 26.598 40.2393C26.9785 40.5983 27.3698 40.9465 27.7829 41.2729C26.487 41.1809 25.2228 40.8294 24.0651 40.2393C23.8476 40.0978 23.7281 40.174 23.7172 40.4351C23.6864 40.7972 23.6864 41.1612 23.7172 41.5232C23.944 43.2582 24.6272 44.9018 25.6968 46.2859C26.7664 47.67 28.1841 48.7449 29.8049 49.4008C30.2 49.5702 30.6117 49.6978 31.0333 49.7816C29.8336 50.018 28.6032 50.0547 27.3916 49.8904C27.1307 49.836 27.0328 49.9774 27.1307 50.2277C28.7287 54.5799 32.1965 55.9074 34.7403 56.6472C35.0882 56.7017 35.4361 56.7017 35.8274 56.7887C35.8274 56.7887 35.8274 56.7887 35.7622 56.854C35.0121 58.2249 31.9791 59.1498 30.5876 59.6285C28.0478 60.5416 25.3399 60.8906 22.6518 60.6513C22.2279 60.586 22.13 60.5969 22.0213 60.6513C21.9126 60.7057 22.0213 60.8254 22.1409 60.9342C22.6845 61.2933 23.228 61.6088 23.7933 61.9135C25.4762 62.8322 27.2553 63.562 29.0983 64.0896C38.643 66.7227 49.3835 64.7859 56.5475 57.6591C62.1786 52.0665 64.1571 44.3522 64.1571 36.6269C64.1571 36.3331 64.5159 36.1591 64.7224 36.0067C66.1471 34.8957 67.403 33.5836 68.4511 32.1115C68.6326 31.892 68.7257 31.6126 68.712 31.3281C68.712 31.1649 68.712 31.1975 68.5055 31.2845Z" fill="white"/>
</svg>
