<?xml version="1.0" encoding="utf-8"?>
<!-- Generator: Adobe Illustrator 19.2.1, SVG Export Plug-In . SVG Version: 6.00 Build 0)  -->
<svg version="1.1" id="Laag_1" xmlns="http://www.w3.org/2000/svg" xmlns:xlink="http://www.w3.org/1999/xlink" x="0px" y="0px"
	 viewBox="0 0 579 394" style="enable-background:new 0 0 579 394;" xml:space="preserve">
<style type="text/css">
	.st0{fill:#004275;stroke:#004275;stroke-width:1.8297;}
	.st1{fill:#007AC2;}
	.st2{fill:#FFFFFF;}
	.st3{fill:#8D8B00;}
	.st4{fill:#C1CD23;}
	.st5{fill:#88B3DF;}
</style>
<g>
	<path class="st0" d="M143.7,246.8c-12.1-8.7-26.4-12.9-42.6-12.9c-35.6,0-61.1,25.2-61.1,60.3c0,39.8,26.4,65.9,66.7,65.9
		c13.2,0,24.1-2.2,40.7-8.7l6.4,29.7c-11.8,5.3-16.5,7-25,9c-9,2-18.8,3.1-29.7,3.1c-28.9,0-49.6-7.3-67-23
		C12.5,352.5,1,325,1,296.2c0-26.9,10.1-51.3,28.3-69.3c18.5-18.2,39.3-25.8,69.8-25.8c23.6,0,42.1,5.6,58,17.7L143.7,246.8z"/>
	<path class="st0" d="M315.2,389.5v-79.4h-95.1v79.4h-35.3V204.5h35.3v74h95.1v-74h35.3v185.1L315.2,389.5L315.2,389.5z"/>
	<path class="st0" d="M393,389.5V204.5h112.7v30h-77.4v45.7h63.4v30h-63.4v49.4h81v30L393,389.5L393,389.5z"/>
	<polygon class="st1" points="547.3,181.1 547.4,261.1 523.9,267.9 523.9,186.5 	"/>
	<path class="st2" d="M292.9,46.4l0.1,36c0,0,46.5,39.2,47.9,44.7c1.5,5.5,7.6-41.9,7.6-41.9l-36.7-39L292.9,46.4z"/>
	<polygon class="st2" points="255.7,132.5 255.7,184.8 265.8,196 265.8,142.5 	"/>
	<path class="st1" d="M578,7.5c0,0-72.2,14.2-168.3,56.2l0.5,52.7c48.2-23.3,106-43.7,167.8-63.1L578,7.5z"/>
	<path class="st3" d="M350.8,90.3l-0.7,1.8c0.2-0.1,0.5-0.2,0.7-0.4V90.3z"/>
	<path class="st3" d="M356.9,87.1l-2.4-0.9c0-3.6-2.4,0.9-2.4,0.9l-1.3,3.2v1.4c-0.2,0.1-0.5,0.2-0.7,0.4
		c-27.4,14.2-55.8,30.4-84.3,49.1l0,54.9c43.4-25.1,69.5-40.2,85.1-48.7c3.6-2,6-4.1,6-8.8C356.9,136.2,356.9,96,356.9,87.1z"/>
	<path class="st2" d="M409.5,54.7l8.9-4.1l-5.2,15.8l27.4,27.9l87.9,81l-4.5,11.3v81.3c0,0-118.3-130.9-123-136.8
		c-2.2-2.7-2.5-6.2-2.5-10.8c0-18.5,0.1-55.9,0.1-55.9L409.5,54.7z"/>
	<path class="st4" d="M351.9,79.3c-7.9-6.9-28-24.4-45-37.2l-14,4.3c0,0,24,18.2,43.7,37.8c1.2,1.2,1.6,3-0.4,4.1
		c-41.1,22.2-74.4,40-80.6,44.1l10.2,10.8c0,0,43-24.1,84-46.9C359,91.3,358.9,85.3,351.9,79.3z"/>
	<path class="st5" d="M421.1,62c9.4-3.9,76.4-31.2,156.9-54.5l-11.1-6.6c0,0-68.2,17.8-157.3,53.3c-10.4,4.1-15.4,9.4-6.8,18.1
		c39.4,39.4,80.1,79.2,121,114.3l23.5-5.5c0,0-69.6-61.2-126.2-113.1C418.1,65.2,418.7,63,421.1,62z"/>
</g>
</svg>
