<svg width="16" height="17" viewBox="0 0 16 17" fill="none" xmlns="http://www.w3.org/2000/svg">
<path d="M15.7372 14.9753L12.716 11.963C13.6907 10.7211 14.2197 9.18756 14.2177 7.60882C14.2177 6.20283 13.8008 4.82841 13.0197 3.65937C12.2385 2.49033 11.1283 1.57918 9.82931 1.04113C8.53034 0.50308 7.101 0.362302 5.72202 0.636597C4.34305 0.910892 3.07638 1.58794 2.08219 2.58213C1.088 3.57631 0.410954 4.84299 0.136658 6.22196C-0.137637 7.60094 0.00314117 9.03028 0.541191 10.3292C1.07924 11.6282 1.9904 12.7385 3.15944 13.5196C4.32847 14.3007 5.70289 14.7176 7.10888 14.7176C8.68762 14.7196 10.2212 14.1907 11.463 13.2159L14.4754 16.2372C14.558 16.3204 14.6563 16.3865 14.7646 16.4317C14.8729 16.4768 14.989 16.5 15.1063 16.5C15.2236 16.5 15.3398 16.4768 15.448 16.4317C15.5563 16.3865 15.6546 16.3204 15.7372 16.2372C15.8205 16.1545 15.8866 16.0563 15.9317 15.948C15.9768 15.8397 16.0001 15.7236 16.0001 15.6062C16.0001 15.4889 15.9768 15.3728 15.9317 15.2645C15.8866 15.1562 15.8205 15.0579 15.7372 14.9753ZM1.77727 7.60882C1.77727 6.55433 2.08996 5.52352 2.67581 4.64674C3.26165 3.76996 4.09434 3.08659 5.06856 2.68305C6.04279 2.27952 7.1148 2.17393 8.14903 2.37965C9.18326 2.58537 10.1333 3.09316 10.8789 3.8388C11.6245 4.58444 12.1323 5.53444 12.3381 6.56868C12.5438 7.60291 12.4382 8.67492 12.0347 9.64914C11.6311 10.6234 10.9478 11.4561 10.071 12.0419C9.19419 12.6277 8.16338 12.9404 7.10888 12.9404C5.69485 12.9404 4.33873 12.3787 3.33886 11.3788C2.33899 10.379 1.77727 9.02285 1.77727 7.60882Z" fill="url(#paint0_radial_430_81)"/>
<defs>
<radialGradient id="paint0_radial_430_81" cx="0" cy="0" r="1" gradientUnits="userSpaceOnUse" gradientTransform="translate(8.00006 8.5) rotate(90) scale(8)">
<stop stop-color="#0075FF"/>
<stop offset="0.510417" stop-color="#0038FF" stop-opacity="0.84"/>
<stop offset="1" stop-color="#0075FF"/>
</radialGradient>
</defs>
</svg>
